<?xml version="1.0" encoding="UTF-8" standalone="no"?>
<!-- Created with Inkscape (http://www.inkscape.org/) -->

<svg
   xmlns:dc="http://purl.org/dc/elements/1.1/"
   xmlns:cc="http://creativecommons.org/ns#"
   xmlns:rdf="http://www.w3.org/1999/02/22-rdf-syntax-ns#"
   xmlns:svg="http://www.w3.org/2000/svg"
   xmlns="http://www.w3.org/2000/svg"
   xmlns:sodipodi="http://sodipodi.sourceforge.net/DTD/sodipodi-0.dtd"
   xmlns:inkscape="http://www.inkscape.org/namespaces/inkscape"
   width="14.476683in"
   height="9.0058517in"
   viewBox="0 0 1302.9014 810.52666"
   id="svg2"
   version="1.1"
   inkscape:version="0.91 r13725"
   sodipodi:docname="Bern-Hill.svg">
  <defs
     id="defs4" />
  <sodipodi:namedview
     id="base"
     pagecolor="#ffffff"
     bordercolor="#666666"
     borderopacity="1.0"
     inkscape:pageopacity="0.0"
     inkscape:pageshadow="2"
     inkscape:zoom="0.34590912"
     inkscape:cx="224.5754"
     inkscape:cy="293.91939"
     inkscape:document-units="px"
     inkscape:current-layer="layer1"
     showgrid="false"
     units="in"
     inkscape:window-width="1280"
     inkscape:window-height="657"
     inkscape:window-x="-8"
     inkscape:window-y="-8"
     inkscape:window-maximized="1"
     fit-margin-top="0.1"
     fit-margin-left="0.1"
     fit-margin-right="0.1"
     fit-margin-bottom="0.1" />
  <metadata
     id="metadata7">
    <rdf:RDF>
      <cc:Work
         rdf:about="">
        <dc:format>image/svg+xml</dc:format>
        <dc:type
           rdf:resource="http://purl.org/dc/dcmitype/StillImage" />
        <dc:title></dc:title>
      </cc:Work>
    </rdf:RDF>
  </metadata>
  <g
     inkscape:label="Layer 1"
     inkscape:groupmode="layer"
     id="layer1"
     transform="translate(11.109066,-61.226924)">
    <rect
       style="opacity:1;fill:#ffffff;fill-opacity:1;stroke:#004ca3;stroke-width:9.11548328;stroke-miterlimit:4;stroke-dasharray:none;stroke-opacity:1"
       id="rect4849"
       width="1287.3497"
       height="789.19299"
       x="-0.44221023"
       y="71.89373" />
    <path
       inkscape:connector-curvature="0"
       style="fill:#ea504e"
       d="m 1237.4054,585.81554 c 0,0 -4.5896,-0.68595 -12.2986,-2.39817 -3.8544,-0.68595 -8.995,-1.88414 -14.8669,-3.08412 -5.8758,-1.19819 -12.8495,-2.39817 -20.5585,-3.08235 -15.4178,-2.39817 -34.1411,-4.79634 -55.2505,-6.6787 -21.2935,-2.39818 -45.7064,-4.28232 -71.9544,-5.48231 -26.4322,-1.19819 -54.6995,-2.39817 -84.80393,-3.08235 -14.8669,0 -30.83569,-0.68595 -46.25738,0 -16.15305,0 -32.12181,0 -48.27484,0.68418 -32.85508,0.68596 -66.81388,1.88594 -101.50595,3.59816 -34.69208,1.88414 -69.38416,3.59635 -104.81336,5.99453 -17.43721,1.19819 -34.69207,2.39817 -52.68021,4.28233 -17.43721,1.19818 -34.69207,3.08412 -52.13121,4.79634 -8.44412,0.68418 -17.43723,1.88416 -25.69897,2.39817 -8.4422,0.68418 -16.70396,1.88416 -25.69706,2.39639 -8.44411,1.19998 -16.70394,1.88594 -25.14807,2.39816 -8.44409,1.19998 -16.70394,1.88416 -25.14805,2.39819 -32.857,3.08413 -64.98071,5.4823 -95.81832,5.99453 -15.41786,0.68595 -30.28671,1.19998 -44.42038,1.19998 -14.13366,0 -28.26733,0 -41.85201,-0.68596 -26.43224,-0.68416 -50.84511,-2.39817 -72.6877,-4.28232 -21.8426,-2.39817 -40.56592,-5.48052 -55.98568,-9.07688 -7.71085,-1.88414 -14.13367,-3.59636 -20.0075,-5.48052 -5.87384,-1.88415 -11.01248,-3.59637 -14.86886,-5.48051 -3.85446,-1.88594 -7.15801,-3.08414 -8.44411,-4.28233 -2.01937,-1.19998 -2.56837,-1.88594 -2.56837,-1.88594 0,0 1.28418,0.68596 3.30356,1.19998 2.01937,0.68596 5.13864,1.88415 8.99502,2.39818 3.85446,1.19819 8.99502,1.88415 14.86886,3.08234 5.87383,1.19998 12.84948,1.88415 20.5584,2.39817 7.70893,0.68596 16.15304,1.19998 25.14807,1.19998 8.99502,0 19.27424,0.68417 29.55344,0 21.2936,0 45.70647,-1.19998 71.40352,-2.39817 12.84948,-0.68595 26.98316,-1.88415 41.11683,-2.39817 14.13366,-1.19998 29.00253,-2.39818 43.6871,-3.59637 30.2867,-2.39816 61.67522,-5.4823 94.53222,-9.07687 16.70396,-1.88415 33.4079,-3.59816 50.10993,-5.48232 16.70203,-1.88415 34.14117,-3.59635 51.39603,-5.4805 17.43721,-1.88416 34.69208,-3.08414 52.68021,-4.28234 17.43722,-1.19998 35.42726,-2.39816 52.68212,-3.59635 35.42536,-2.39818 70.66835,-3.59816 105.36234,-4.28234 34.69207,-0.68595 68.83324,-0.68595 102.24115,0 16.70395,0.68418 32.85699,0.68418 48.82766,1.88416 16.15303,0.68417 31.57088,1.88415 46.99067,2.39818 30.28483,1.88414 59.10493,4.79455 85.53723,7.8769 26.4341,3.59635 50.8451,7.19451 71.9544,10.78908 21.2936,4.28233 39.8327,7.8769 54.6996,11.98728 7.7108,1.88416 14.1336,3.59817 20.0075,5.48231 5.8757,1.88416 11.0144,3.08235 14.8688,4.28233 8.6266,3.25606 13.2162,4.45604 13.2162,4.45604 z"
       id="path4227" />
    <path
       inkscape:connector-curvature="0"
       style="fill:#087ed7"
       d="m 336.32308,447.2588 c 0,-31.16908 -18.7214,-49.15269 -57.82078,-54.63321 32.85699,-6.6787 48.27484,-22.77816 48.27484,-49.1527 0,-39.04957 -26.43225,-55.14724 -91.96192,-55.14724 l -105.91135,0 0,24.66231 17.99005,0 c 5.13865,0 7.15802,2.39819 7.15802,9.07689 l 0,151.05626 c 0,7.19452 -2.01937,9.5909 -7.15802,9.5909 l -17.99005,0 0,24.66233 105.36234,0 c 71.21926,-0.17194 102.05687,-18.15377 102.05687,-60.11554 z m -132.34549,-134.27261 29.55344,0 c 30.28671,0 41.11681,9.07687 41.11681,35.96543 0,25.17813 -14.13367,35.4532 -43.68709,35.4532 l -26.98316,0 0,-71.41863 z m 0,92.99861 35.42726,0 c 30.83763,0 44.42037,10.78909 44.42037,39.04777 0,27.57451 -12.84948,37.85138 -46.99065,37.85138 l -32.85698,0 0,-76.89915 z"
       id="path4229" />
    <polygon
       transform="matrix(1.9195528,0,0,1.7910181,62.638994,-467.48756)"
       style="fill:#087ed7"
       points="475.447,439.788 470.762,425.062 482.811,415.978 468.084,415.978 463.398,401.251 458.617,415.978 443.604,415.978 455.653,425.062 451.254,439.788 463.398,430.417 "
       id="polygon4231" />
    <g
       transform="matrix(1.9195528,0,0,1.7910181,62.638994,-467.48756)"
       id="XMLID_1_">
      <g
         id="g4234">
        <path
           style="fill:#087ed7"
           inkscape:connector-curvature="0"
           d="m 577.19,557.6 c 4.31,1.341 5.84,2.681 5.84,2.681 0,0 -2.011,-0.29 -6.41,-1.34 -2.01,-0.671 -4.69,-1.061 -7.75,-1.721 -3.34,-0.67 -6.69,-1.34 -10.71,-2.01 -8.03,-1.34 -17.69,-2.68 -28.78,-4.02 -11.09,-1.341 -23.43,-2.29 -37.2,-3.351 -13.67,-0.95 -28.489,-1.62 -44.18,-2 -15.68,-0.39 -32.41,-0.39 -49.53,0 -17.02,0.38 -34.81,0.66 -52.88,1.72 -18.07,0.671 -36.53,2.011 -54.6,3.341 -18.08,1.72 -36.15,3.35 -54.22,5.069 -4.31,0.29 -8.99,0.96 -13.39,1.34 -4.69,0.29 -8.99,0.96 -13.39,1.341 -8.7,1.05 -17.4,2.01 -26.1,3.06 -17.02,1.72 -33.76,3.06 -49.54,3.73 -15.77,0.67 -30.79,0.67 -44.56,0.67 -14.06,-0.29 -26.77,-0.96 -37.87,-2.011 -10.99,-1.05 -20.75,-2.39 -28.78,-4.399 -4.02,-0.95 -7.36,-2.01 -10.42,-2.681 -3.06,-1.05 -5.74,-2 -7.75,-3.06 -2.29,-1.05 -3.63,-1.72 -4.68,-2.39 0.95,0.39 2.67,1.05 4.68,1.72 4.4,1.34 10.43,2.68 18.46,3.35 4.01,0.38 8.41,0.67 13.1,1.051 4.68,0.39 9.66,0.39 15.39,0.39 5.74,0 11.38,0 17.79,-0.39 6.41,0 13.1,-0.28 19.79,-0.671 13.68,-0.67 28.41,-1.72 44.18,-3.06 8.04,-0.67 16.07,-1.34 24.1,-2.39 8.42,-0.67 16.74,-1.62 25.15,-2.67 3.35,-0.67 6.69,-0.96 10.04,-1.341 -31.75,-1.34 -47.52,-22.38 -47.52,-51.54 0,-30.8 19.41,-51.55 47.9,-51.55 29.17,0 45.23,19.03 45.23,51.55 l 0,5.061 -66.93,0 c 0.28,18.46 8.99,30.51 26.1,30.51 13.1,0 20.75,-6.979 25.15,-18.74 l 14.44,6.69 c -4.01,11.76 -11.76,21.42 -25.15,25.82 7.65,-0.96 15.4,-2.011 23.43,-2.681 1.72,-0.29 3.73,-0.29 5.74,-0.67 l 0,-12.43 8.41,0 c 2.3,0 3.35,-0.67 3.35,-5.36 l 0,-56.608 c 0,-4.681 -0.96,-6.021 -3.35,-6.021 l -9.08,0 0,-15.109 15.39,0 c 9.38,0 17.69,-0.95 22.09,-2.011 l 0,21.42 c 4.4,-15.68 14.06,-22.09 25.15,-22.09 13.68,0 22.09,9.37 22.09,23.811 0,12.72 -7.36,21.14 -18.07,21.14 -6.69,0 -12.72,-6.03 -12.72,-13.39 0,-5.36 3.35,-11 9.09,-12.721 -1.34,-1.34 -3.73,-2.01 -6.41,-2.01 -12.34,0 -18.74,12.34 -18.74,32.8 l 0,30.79 c 0,4.69 1.33,5.36 3.34,5.36 l 9.09,0 0,8.03 c 11.66,-0.67 23.71,-1.341 35.47,-1.721 l 0,-6.409 8.42,0 c 2.29,0 3.351,-0.671 3.351,-5.351 l 0,-56.61 c 0,-4.689 -0.961,-6.029 -3.351,-6.029 l -6.03,0 c -0.67,-4.01 -4.01,-12.71 -9.08,-15.101 l 21.421,0 c 9.079,0 17.79,-0.96 21.8,-2.01 l 0,19.41 c 5.74,-13.39 16.45,-20.08 31.18,-20.08 19.41,0 29.83,12.05 29.83,36.53 l 0,43.51 c 0,4.68 1.34,5.35 3.35,5.35 l 8.41,0 0,6.69 c 1.061,0 2.01,0 3.061,0 l 0,-6.69 8.42,0 c 2.01,0 3.06,-0.949 3.06,-5.35 l 0,-54.61 c 0,-6.31 -0.67,-8.029 -4.02,-8.029 l -7.36,0 0,-15.109 15.11,0 c 9.37,0 17.689,-0.95 22.09,-2 l 0,79.65 c 0,4.3 1.05,5.359 3.06,5.359 l 8.03,0 0,10.71 c 2.01,0.28 4.021,0.28 6.021,0.66 9.659,1.34 19.029,2.68 27.449,4.021 -22.09,-6.311 -33.18,-25.051 -33.18,-49.53 0,-30.79 19.41,-51.54 47.9,-51.54 29.17,0 45.229,19.03 45.229,51.54 l 0,5.07 -66.931,0 c 0.28,18.449 8.99,30.5 26.1,30.5 13.101,0 20.75,-6.98 25.15,-18.74 l 14.439,6.689 c -5.35,15.681 -17.689,28.11 -41.5,28.11 -2.01,0 -4.02,-0.38 -6.02,-0.38 10.42,2.01 19.79,4.02 27.149,6.03 4.021,1.05 7.37,2.01 10.431,3.06 3.061,1.051 5.731,1.721 7.741,2.391 z m -63.97,-70.96 41.5,0 c -0.29,-19.689 -6.02,-27.439 -19.41,-27.439 -13.39,-0.001 -20.75,8.029 -22.09,27.439 z m -114.08,37.2 0,-43.22 c 0,-13.67 -4.689,-19.41 -15.109,-19.41 -12.721,0 -20.08,10.33 -20.08,32.13 l 0,30.5 c 0,4.69 1.34,5.36 3.35,5.36 l 7.36,0 0,5.35 c 4.68,-0.38 9.37,-0.38 13.77,0 l 0,-5.35 7.36,0 c 2.299,0 3.349,-0.67 3.349,-5.36 z m -227.02,-37.2 41.51,0 c -0.29,-19.689 -6.03,-27.439 -19.42,-27.439 -13.38,-0.001 -20.75,8.029 -22.09,27.439 z"
           id="path4236" />
        <path
           inkscape:connector-curvature="0"
           d="m -1.05,550.52 c 0,0 0.67,0 1.34,1.051 -0.67,-0.671 -1.34,-1.051 -1.34,-1.051 z"
           id="path4238" />
      </g>
      <g
         id="g4240" />
    </g>
    <path
       inkscape:connector-curvature="0"
       style="fill:#087ed7"
       d="m 560.99715,697.30822 c 5.87382,-5.65245 9.91256,-10.27686 12.11429,-13.87323 2.20173,-3.59636 3.30356,-7.36466 3.30356,-11.30491 0,-7.02078 -2.5703,-12.5013 -7.70892,-16.61169 -5.14058,-4.11038 -11.19677,-6.16468 -17.98813,-6.16468 -6.79331,0 -12.48286,1.19819 -16.88824,3.7683 -4.40537,2.57011 -8.25983,6.33662 -11.93002,11.47505 l 11.19675,5.99455 c 4.40539,-6.50856 10.09493,-9.58911 16.88631,-9.58911 3.85446,0 6.97566,1.02625 9.54594,3.25248 2.57028,2.22624 3.67209,4.79635 3.67209,7.8769 0,3.08413 -1.10181,6.16468 -3.48782,9.07688 -2.386,3.08414 -6.24046,7.19452 -11.93193,12.33115 l -24.96379,23.2922 0,10.96103 56.16804,0 0,-12.33116 -37.26237,0 19.27424,-18.15376 z m 64.61214,-47.78257 c -11.19675,0 -19.64086,3.59636 -25.14806,10.78909 -5.5072,7.19273 -8.25983,16.78363 -8.25983,28.94286 0,12.16101 2.75456,21.7519 8.25983,28.94465 5.5072,7.19272 13.95131,10.78908 25.14806,10.78908 11.19676,0 19.64086,-3.59815 25.14806,-10.78908 5.5072,-7.19454 8.25984,-16.78364 8.25984,-28.94465 0,-12.15923 -2.75455,-21.75191 -8.25984,-28.94286 -5.5072,-7.19273 -13.9513,-10.78909 -25.14806,-10.78909 z m 15.05123,60.4576 c -3.11929,5.30858 -8.25985,7.8769 -15.05123,7.8769 -6.97564,0 -11.93001,-2.5701 -15.23548,-7.8769 -3.30547,-5.31035 -4.95629,-12.161 -4.95629,-20.72386 0,-8.56287 1.65082,-15.41171 4.95629,-20.72209 3.30354,-5.31037 8.25984,-7.8769 15.23548,-7.8769 6.97566,0 11.93194,2.56833 15.05123,7.8769 3.11926,5.30859 4.77199,12.15922 4.77199,20.72209 0,8.56286 -1.46845,15.41351 -4.77199,20.72386 z"
       id="path4242" />
    <polygon
       transform="matrix(1.9195528,0,0,1.7910181,62.638994,-467.48756)"
       style="fill:#087ed7"
       points="316.137,631.134 324.838,631.134 324.838,667.471 331.628,667.471 331.628,624.727 316.137,624.727 "
       id="polygon4244" />
    <path
       inkscape:connector-curvature="0"
       style="fill:#087ed7"
       d="m 770.25336,685.49109 c -4.95628,-4.62442 -11.19867,-6.85065 -18.53905,-6.85065 -4.40536,0 -8.62837,0.85791 -12.29856,2.74026 -3.67018,1.7122 -6.42475,3.7683 -8.44221,5.8226 0,-7.87691 1.83511,-14.04338 5.32102,-18.66779 3.48782,-4.6244 8.81267,-6.85065 16.15304,-6.85065 2.386,0 4.95628,0.51403 8.07748,1.71222 2.9369,1.19998 5.50527,2.57012 7.15801,3.94024 l 6.97565,-9.59091 c -7.15802,-5.13842 -15.23741,-7.70674 -24.23052,-7.70674 -8.99311,0 -16.33732,3.08234 -22.57779,8.90495 -3.12119,3.08413 -5.69147,7.19451 -7.34228,12.50309 -1.8351,5.30858 -2.75455,11.81714 -2.75455,19.69404 0,7.87869 1.47037,14.89947 4.22301,21.23788 4.95436,10.95925 14.13174,16.44155 27.16552,16.44155 8.07555,0 14.86693,-2.22623 20.19176,-6.85064 5.32485,-4.62441 8.07557,-10.61895 8.07557,-18.32391 0,-7.70854 -2.20173,-13.53113 -7.1561,-18.15554 z m -9.36166,28.25868 c -3.12119,2.5701 -6.97565,3.7683 -11.56339,3.7683 -4.58773,0 -8.4441,-1.37014 -11.56339,-4.28233 -3.12119,-2.74025 -4.58963,-6.16468 -4.58963,-10.10492 0,-3.94024 1.6508,-7.02258 4.772,-9.59091 3.11927,-2.39816 7.15801,-3.59636 11.93002,-3.59636 4.77201,0 8.44411,1.37013 11.38294,4.1104 2.75265,2.74026 4.2211,5.99453 4.2211,9.93298 -0.002,4.11218 -1.65466,7.19451 -4.58965,9.76284 z"
       id="path4246" />
    <rect
       style="fill:#e1e2e2"
       x="144.32172"
       y="687.20319"
       width="348.75974"
       height="4.2823243"
       id="rect4248" />
    <rect
       style="fill:#e1e2e2"
       x="808.7998"
       y="687.20319"
       width="348.75974"
       height="4.2823243"
       id="rect4250" />
    <g
       id="g4188"
       transform="matrix(2.3266444,0,0,2.5796836,1654.3107,-1600.6845)">
      <rect
         y="654.76562"
         x="-572.37927"
         height="290.27615"
         width="94.563026"
         id="rect4155"
         style="opacity:1;fill:#004ca3;fill-opacity:1;stroke:none;stroke-width:1.5;stroke-miterlimit:4;stroke-dasharray:none;stroke-opacity:1" />
      <rect
         y="654.76562"
         x="-388.92706"
         height="290.27615"
         width="94.563026"
         id="rect4155-2"
         style="opacity:1;fill:#004ca3;fill-opacity:1;stroke:none;stroke-width:1.5;stroke-miterlimit:4;stroke-dasharray:none;stroke-opacity:1" />
      <path
         inkscape:transform-center-y="2.779825e-005"
         transform="matrix(1.1798858,0,0,2.0588958,-31.550375,-465.80336)"
         inkscape:transform-center-x="-26.069608"
         d="m -179.88942,614.90381 -122.65189,70.8131 0,-141.62621 z"
         inkscape:randomized="0"
         inkscape:rounded="0"
         inkscape:flatsided="true"
         sodipodi:arg2="1.0471976"
         sodipodi:arg1="0"
         sodipodi:r2="40.883965"
         sodipodi:r1="81.767929"
         sodipodi:cy="614.90381"
         sodipodi:cx="-261.65735"
         sodipodi:sides="3"
         id="path4159"
         style="opacity:1;fill:#e60022;fill-opacity:1;stroke:none;stroke-width:1.5;stroke-miterlimit:4;stroke-dasharray:none;stroke-opacity:1"
         sodipodi:type="star" />
      <rect
         y="757.33325"
         x="-572.42627"
         height="86.989822"
         width="261.08792"
         id="rect4161"
         style="opacity:1;fill:#e60022;fill-opacity:1;stroke:none;stroke-width:1.39842713;stroke-miterlimit:4;stroke-dasharray:none;stroke-opacity:1" />
    </g>
  </g>
</svg>
